<?xml version="1.0" encoding="iso-8859-1"?>
<!-- Generator: Adobe Illustrator 20.1.0, SVG Export Plug-In . SVG Version: 6.00 Build 0)  -->
<svg xmlns="http://www.w3.org/2000/svg" xmlns:xlink="http://www.w3.org/1999/xlink" version="1.1" id="&#1057;&#1083;&#1086;&#1081;_1" x="0px" y="0px" viewBox="0 0 64 64" style="enable-background:new 0 0 64 64;" xml:space="preserve">
	<circle cx="32" cy="32" r="32" fill="#F6FFF8"/><linearGradient id="SVGID_1__44020" gradientUnits="userSpaceOnUse" x1="20" y1="9.75" x2="20" y2="18.4841" spreadMethod="reflect">
	<stop offset="0" style="stop-color:#6DC7FF"/>
	<stop offset="1" style="stop-color:#E6ABFF"/>
</linearGradient>
<path style="fill:url(#SVGID_1__44020);" d="M16,18v-6c0-1.105,0.895-2,2-2h6L16,18z"/>
<linearGradient id="SVGID_2__44020" gradientUnits="userSpaceOnUse" x1="32" y1="5.8333" x2="32" y2="58.7111" spreadMethod="reflect">
	<stop offset="0" style="stop-color:#1A6DFF"/>
	<stop offset="1" style="stop-color:#C822FF"/>
</linearGradient>
<path style="fill:url(#SVGID_2__44020);" d="M50.536,15.121l-7.657-7.657C41.935,6.52,40.679,6,39.344,6H17c-2.757,0-5,2.243-5,5v37v1v4  c0,2.757,2.243,5,5,5h30c2.757,0,5-2.243,5-5v-4v-1V18.657C52,17.322,51.48,16.066,50.536,15.121z M48.586,16H43  c-0.551,0-1-0.449-1-1V9.414L48.586,16z M47,56H17c-1.654,0-3-1.346-3-3v-0.026C14.838,53.609,15.87,54,17,54h30  c1.13,0,2.162-0.391,3-1.026V53C50,54.654,48.654,56,47,56z M50,49c0,1.654-1.346,3-3,3H17c-1.654,0-3-1.346-3-3v-1V11  c0-1.654,1.346-3,3-3h22.344C39.566,8,39.785,8.031,40,8.08V15c0,1.654,1.346,3,3,3h6.922C49.97,18.214,50,18.432,50,18.657V48V49z"/>
<linearGradient id="SVGID_3__44020" gradientUnits="userSpaceOnUse" x1="24" y1="5.8333" x2="24" y2="58.7111" spreadMethod="reflect">
	<stop offset="0" style="stop-color:#1A6DFF"/>
	<stop offset="1" style="stop-color:#C822FF"/>
</linearGradient>
<path style="fill:url(#SVGID_3__44020);" d="M24,23c-1.654,0-3,1.346-3,3s1.346,3,3,3s3-1.346,3-3S25.654,23,24,23z M24,27  c-0.551,0-1-0.449-1-1s0.449-1,1-1s1,0.449,1,1S24.551,27,24,27z"/>
<linearGradient id="SVGID_4__44020" gradientUnits="userSpaceOnUse" x1="36" y1="5.8333" x2="36" y2="58.7111" spreadMethod="reflect">
	<stop offset="0" style="stop-color:#1A6DFF"/>
	<stop offset="1" style="stop-color:#C822FF"/>
</linearGradient>
<rect x="29" y="25" style="fill:url(#SVGID_4__44020);" width="14" height="2"/>
<linearGradient id="SVGID_5__44020" gradientUnits="userSpaceOnUse" x1="24" y1="5.8333" x2="24" y2="58.7111" spreadMethod="reflect">
	<stop offset="0" style="stop-color:#1A6DFF"/>
	<stop offset="1" style="stop-color:#C822FF"/>
</linearGradient>
<path style="fill:url(#SVGID_5__44020);" d="M24,31c-1.654,0-3,1.346-3,3s1.346,3,3,3s3-1.346,3-3S25.654,31,24,31z M24,35  c-0.551,0-1-0.449-1-1s0.449-1,1-1s1,0.449,1,1S24.551,35,24,35z"/>
<linearGradient id="SVGID_6__44020" gradientUnits="userSpaceOnUse" x1="36" y1="5.8333" x2="36" y2="58.7111" spreadMethod="reflect">
	<stop offset="0" style="stop-color:#1A6DFF"/>
	<stop offset="1" style="stop-color:#C822FF"/>
</linearGradient>
<rect x="29" y="33" style="fill:url(#SVGID_6__44020);" width="14" height="2"/>
<linearGradient id="SVGID_7__44020" gradientUnits="userSpaceOnUse" x1="24" y1="5.8333" x2="24" y2="58.7111" spreadMethod="reflect">
	<stop offset="0" style="stop-color:#1A6DFF"/>
	<stop offset="1" style="stop-color:#C822FF"/>
</linearGradient>
<path style="fill:url(#SVGID_7__44020);" d="M24,39c-1.654,0-3,1.346-3,3s1.346,3,3,3s3-1.346,3-3S25.654,39,24,39z M24,43  c-0.551,0-1-0.449-1-1s0.449-1,1-1s1,0.449,1,1S24.551,43,24,43z"/>
<linearGradient id="SVGID_8__44020" gradientUnits="userSpaceOnUse" x1="36" y1="5.8333" x2="36" y2="58.7111" spreadMethod="reflect">
	<stop offset="0" style="stop-color:#1A6DFF"/>
	<stop offset="1" style="stop-color:#C822FF"/>
</linearGradient>
<rect x="29" y="41" style="fill:url(#SVGID_8__44020);" width="14" height="2"/>
</svg>
